<?xml version="1.0" encoding="UTF-8"?>
<svg viewBox="0 0 318.89763 177.16535" xmlns="http://www.w3.org/2000/svg" xmlns:xlink="http://www.w3.org/1999/xlink">
 <defs>
  <linearGradient id="a" x1="133.25" x2="135.26" y1="123.59" y2="128.08" gradientUnits="userSpaceOnUse">
   <stop stop-color="#aaa9a9" offset="0"/>
   <stop stop-color="#fff" offset=".16863"/>
   <stop stop-color="#fff" offset=".83922"/>
   <stop stop-color="#aaa9a9" offset="1"/>
  </linearGradient>
  <linearGradient id="d" x1="65.013" x2="70.201" y1="137" y2="153.97" gradientUnits="userSpaceOnUse">
   <stop stop-color="#c2c1c1" offset="0"/>
   <stop stop-color="#fff" offset=".23137"/>
   <stop stop-color="#fff" offset=".70196"/>
   <stop stop-color="#c2c1c1" offset="1"/>
  </linearGradient>
  <linearGradient id="ak" x1="120.33" x2="124.69" y1="121.49" y2="129.94" gradientUnits="userSpaceOnUse">
   <stop stop-color="#aaa9a9" offset="0"/>
   <stop stop-color="#fff" offset="1"/>
  </linearGradient>
  <linearGradient id="b" x1="93.845" x2="97.641" y1="125.52" y2="147.79" gradientUnits="userSpaceOnUse">
   <stop stop-color="#dededd" offset="0"/>
   <stop stop-color="#fff" offset="1"/>
  </linearGradient>
  <linearGradient id="c" x1="127.08" x2="121.29" y1="122.94" y2="126.96" gradientUnits="userSpaceOnUse">
   <stop stop-color="#c2c1c1" offset="0"/>
   <stop stop-color="#fff" offset="1"/>
  </linearGradient>
  <linearGradient id="ai" x1="120.89" x2="118.67" y1="128.5" y2="129.59" gradientUnits="userSpaceOnUse">
   <stop stop-color="#aaa9a9" offset="0"/>
   <stop stop-color="#d5d4d4" offset=".01176"/>
   <stop stop-color="#fff" offset="1"/>
  </linearGradient>
  <linearGradient id="ag" x1="88.735" x2="101.78" y1="168.41" y2="145.37" gradientUnits="userSpaceOnUse">
   <stop stop-color="#fff" offset="0"/>
   <stop stop-color="#dededd" offset="1"/>
  </linearGradient>
  <linearGradient id="af" x1="122.59" x2="116.39" y1="151.66" y2="130.51" gradientUnits="userSpaceOnUse">
   <stop stop-color="#fff" offset="0"/>
   <stop stop-color="#dededd" offset="1"/>
  </linearGradient>
  <linearGradient id="ad" x1="230.01" x2="231.12" y1="45.257" y2="48.443" gradientUnits="userSpaceOnUse">
   <stop stop-color="#dededd" offset="0"/>
   <stop stop-color="#fff" offset=".25098"/>
   <stop stop-color="#fff" offset=".76078"/>
   <stop stop-color="#dededd" offset="1"/>
  </linearGradient>
  <linearGradient id="y" x1="203.82" x2="206.4" y1="49.611" y2="59.516" gradientUnits="userSpaceOnUse">
   <stop stop-color="#dededd" offset="0"/>
   <stop stop-color="#fff" offset=".18824"/>
   <stop stop-color="#fff" offset=".72157"/>
   <stop stop-color="#dededd" offset="1"/>
  </linearGradient>
  <linearGradient id="x" x1="196.03" x2="206.03" y1="38.632" y2="71.695" gradientUnits="userSpaceOnUse">
   <stop stop-color="#aaa9a9" offset="0"/>
   <stop stop-color="#fff" offset=".2"/>
   <stop stop-color="#fff" offset=".81961"/>
   <stop stop-color="#aaa9a9" offset="1"/>
  </linearGradient>
  <linearGradient id="w" x1="191.47" x2="200.97" y1="41.172" y2="71.731" gradientUnits="userSpaceOnUse">
   <stop stop-color="#aaa9a9" offset="0"/>
   <stop stop-color="#fff" offset=".14902"/>
   <stop stop-color="#fff" offset=".85098"/>
   <stop stop-color="#aaa9a9" offset="1"/>
  </linearGradient>
  <linearGradient id="v" x1="141.86" x2="137.58" y1="72.968" y2="58.746" gradientUnits="userSpaceOnUse">
   <stop stop-color="#fff" offset="0"/>
   <stop stop-color="#bae2f8" offset=".14118"/>
   <stop stop-color="#75c5f0" offset="1"/>
  </linearGradient>
  <linearGradient id="u" x1="144.77" x2="140.54" y1="86.653" y2="72.443" gradientUnits="userSpaceOnUse">
   <stop stop-color="#c2c1c1" offset="0"/>
   <stop stop-color="#e1e0e0" offset=".18824"/>
   <stop stop-color="#fff" offset="1"/>
  </linearGradient>
  <linearGradient id="r" x1="77.811" x2="80.108" y1="104.19" y2="106.45" gradientUnits="userSpaceOnUse">
   <stop stop-color="#aaa9a9" offset="0"/>
   <stop stop-color="#fff" offset=".27059"/>
   <stop stop-color="#fff" offset=".74902"/>
   <stop stop-color="#aaa9a9" offset="1"/>
  </linearGradient>
  <linearGradient id="q" x1="72.295" x2="71.494" y1="77.622" y2="80.612" gradientUnits="userSpaceOnUse">
   <stop stop-color="#c2c1c1" offset="0"/>
   <stop stop-color="#fff" offset=".27059"/>
   <stop stop-color="#fff" offset=".54118"/>
   <stop stop-color="#dededd" offset="1"/>
  </linearGradient>
  <linearGradient id="o" x1="72.129" x2="73.798" y1="90.337" y2="98.233" gradientUnits="userSpaceOnUse">
   <stop stop-color="#dededd" offset="0"/>
   <stop stop-color="#fff" offset=".43922"/>
   <stop stop-color="#fff" offset=".45098"/>
   <stop stop-color="#dededd" offset="1"/>
  </linearGradient>
  <linearGradient id="n" x1="65.799" x2="70.096" y1="87.182" y2="101.89" gradientUnits="userSpaceOnUse">
   <stop stop-color="#c2c1c1" offset="0"/>
   <stop stop-color="#fff" offset=".14902"/>
   <stop stop-color="#fff" offset=".85882"/>
   <stop stop-color="#c2c1c1" offset="1"/>
  </linearGradient>
  <linearGradient id="m" x1="60.139" x2="61.056" y1="95.419" y2="98.542" gradientUnits="userSpaceOnUse">
   <stop stop-color="#c2c1c1" offset="0"/>
   <stop stop-color="#fff" offset=".25882"/>
   <stop stop-color="#fff" offset=".83137"/>
   <stop stop-color="#c2c1c1" offset="1"/>
  </linearGradient>
  <linearGradient id="k" x1="47.241" x2="45.727" y1="104.13" y2="98.201" gradientUnits="userSpaceOnUse">
   <stop stop-color="#c2c1c1" offset="0"/>
   <stop stop-color="#fff" offset=".25098"/>
   <stop stop-color="#fff" offset=".83922"/>
   <stop stop-color="#c2c1c1" offset="1"/>
  </linearGradient>
  <linearGradient id="j" x1="40.981" x2="10.872" y1="97.904" y2="117.42" gradientUnits="userSpaceOnUse">
   <stop stop-color="#c2c1c1" offset="0"/>
   <stop stop-color="#dededd" offset=".10196"/>
   <stop stop-color="#fff" offset="1"/>
  </linearGradient>
  <linearGradient id="aj" x1="93.845" x2="97.641" y1="125.52" y2="147.79" gradientUnits="userSpaceOnUse" xlink:href="#b"/>
  <linearGradient id="ah" x1="127.08" x2="121.29" y1="122.94" y2="126.96" gradientUnits="userSpaceOnUse" xlink:href="#c"/>
  <linearGradient id="ae" x1="91.873" x2="90.683" y1="123.65" y2="138.99" gradientUnits="userSpaceOnUse" xlink:href="#b"/>
  <linearGradient id="ac" x1="218.95" x2="222.85" y1="44.957" y2="53.654" gradientUnits="userSpaceOnUse" xlink:href="#a"/>
  <linearGradient id="ab" x1="224.6" x2="226.81" y1="45.166" y2="50.47" gradientUnits="userSpaceOnUse" xlink:href="#a"/>
  <linearGradient id="aa" x1="208.1" x2="211.95" y1="48.317" y2="56.912" gradientUnits="userSpaceOnUse" xlink:href="#a"/>
  <linearGradient id="z" x1="214.32" x2="217.08" y1="47.671" y2="54.048" gradientUnits="userSpaceOnUse" xlink:href="#a"/>
  <linearGradient id="t" x1="81.531" x2="90.654" y1="74.39" y2="104.23" gradientUnits="userSpaceOnUse" xlink:href="#d"/>
  <linearGradient id="s" x1="77.458" x2="87.39" y1="73.988" y2="106.48" gradientUnits="userSpaceOnUse" xlink:href="#d"/>
  <linearGradient id="p" x1="73.201" x2="36.146" y1="63.483" y2="87.46" gradientUnits="userSpaceOnUse" xlink:href="#c"/>
  <linearGradient id="l" x1="56.499" x2="51.566" y1="97.805" y2="99.931" gradientUnits="userSpaceOnUse" xlink:href="#b"/>
  <linearGradient id="i" x1="115.33" x2="78.275" y1="139.04" y2="163.01" gradientUnits="userSpaceOnUse" xlink:href="#c"/>
  <radialGradient id="e" cx="91.332" cy="131.98" r="14.173" gradientUnits="userSpaceOnUse">
   <stop stop-color="#fff" offset="0"/>
   <stop stop-color="#dededd" offset="1"/>
  </radialGradient>
  <radialGradient id="h" cx="95.705" cy="157.27" r="13.414" gradientUnits="userSpaceOnUse">
   <stop stop-color="#fff" offset="0"/>
   <stop stop-color="#efefee" offset=".70196"/>
   <stop stop-color="#dededd" offset="1"/>
  </radialGradient>
  <radialGradient id="g" cx="119.3" cy="140.11" r="13.225" gradientUnits="userSpaceOnUse" xlink:href="#e"/>
  <radialGradient id="f" cx="91.332" cy="131.98" r="14.173" gradientUnits="userSpaceOnUse" xlink:href="#e"/>
 </defs>
 <path d="m23.52 84.007c-0.255 6e-3 -0.49455 0.0358-0.75 0.0625-8.1739 0.85533-13.401 12.1-11.656 25.125s9.7944 22.918 17.969 22.062 13.401-12.131 11.656-25.156c-1.6904-12.618-9.3136-22.28-17.219-22.094zm0.0312 3.0938c6.1823-0.1589 12.115 8.0467 13.438 18.781 1.3648 11.081-2.7008 20.647-9.0938 21.375s-12.698-7.6692-14.062-18.75 2.732-20.647 9.125-21.375c0.19978-0.0227 0.39432-0.0261 0.59375-0.0312z" fill="url(#j)" stroke="#1f1a17" stroke-width=".38287"/>
 <path d="m56.167 59.422c-2.9546-0.02069-6.3106 0.76495-8.6875 2-7.6542 3.9771-10.657 13.162-6.7188 20.531s13.877 10.059 21.125 5.1562c10.665-7.2144 10.429-24.225-2.9688-27.375-0.84528-0.19881-1.7651-0.3056-2.75-0.3125zm0.125 1.5938c0.78904 0.0025 1.5402 0.08005 2.2188 0.25 10.083 2.5254 10.487 15.201 3.5 21.906-3.8605 3.7037-10.379 5.1375-15 2.2812-9.2906-5.7436-6.9825-17.786 2.2812-22.719 1.9234-1.024 4.6329-1.7263 7-1.7188z" fill="url(#p)" stroke="#1f1a17" stroke-width=".38287"/>
 <g transform="matrix(1.9144 0 0 1.9144 -46.999 -188.28)" stroke="#1f1a17" stroke-width=".2">
  <path d="m110.35 157.27a14.642 13.84 0 1 0 -29.283 0 14.642 13.84 0 1 0 29.283 0" fill="url(#h)"/>
  <path d="m89.7992,171.833c-4.3209-2.0165-7.3005-6.1561-8.3151-10.7515-.1458-.6602-.1293-1.1528-.2282-1.3371-.0073-.0135-.111-.749-.1525-1.4397-.0507-.843-.0404-1.6267-.0404-1.036 0,7.6425 6.5567,13.8403 14.6417,13.8403s14.707-6.1982 14.6417-13.8403c-.006-.7237.04.7331-.1487,2.8472-.2157,2.4179-.5586,4.224-1.9257,6.2771-3.8523,5.7874-12.128,8.4005-18.4728,5.44z" fill="#bfbfbf"/>
  <path d="m96.8829,143.956c1.2128.1067 2.3855.4385 3.5193.9892-2.5562,8.0342-4.6491,16.3436-6.3516,24.885-1.3845-.0274-2.708-.3338-3.9342-1.0902 1.6508-8.364 3.914-16.5784 6.7665-24.784z" fill="url(#ag)"/>
  <path d="m96.883 143.96-6.7665 24.784c1.6508-8.364 3.914-16.578 6.7665-24.784z" fill="#797979"/>
  <path d="m133.17 140.11a13.87 12.419 0 1 0 -27.74 0 13.87 12.419 0 1 0 27.74 0" fill="url(#g)"/>
  <path d="m119.297,152.53c-7.6589,0-13.8258-5.5618-13.87-12.4191-.003-.5144-.004.5644.0218.6372 .0232.0663.0185-.1093 0,0-.0148.0878.0121-.0552-.003.0142-.5908,2.7106-.006,5.3954 2.2358,8.5439 2.803,3.9374 8.1586,5.9024 11.568,5.8302 8.083-.1711 12.7089-5.8119 13.691-12.7796 .2356-1.6719.2263-2.8959.2263-2.2459 0,6.8577-6.2111,12.4191-13.8699,12.4191z" fill="#b7b7b7"/>
  <path d="m115.902,130.692 3.6709-.0426c1.2961,6.7593 2.7075,13.5135 3.4978,20.2729-1.3464.4874-2.6612.5943-3.9444.3211-.8063-7.0054-1.8916-13.852-3.2243-20.5514z" fill="url(#af)"/>
  <path d="m119.573,130.65c1.2961,6.7593 2.7075,13.5137 3.4978,20.2731l-.2653.0615-3.4953-20.278 .2628-.0566z" fill="#727272"/>
  <path d="m105.17 131.98a13.834 12.016 0 1 0 -27.669 0 13.834 12.016 0 1 0 27.669 0" fill="url(#f)"/>
  <path d="m82.248 123.8c7.5058 3.1611 14.236 7.6071 20.287 13.177l-2.2752 1.8486c-6.2397-4.8173-12.862-9.1235-20.24-12.419 0.4067-0.9364 1.1888-1.7975 2.2278-2.607z" fill="url(#ae)"/>
  <path d="m102.54 136.98l-20.287-13.177c-0.5483-0.3562 10.401 4.0775 20.287 13.177z" fill="#b0b0b0"/>
 </g>
 <path transform="matrix(2.791 -.31773 .23222 1.8854 25.477 107.19)" d="m4.1475 0a4.1475 10.641 0 1 0 -8.295 0 4.1475 10.641 0 1 0 8.295 0" fill="none" stroke="#1f1a17" stroke-width=".2"/>
 <path d="m23.006 87.13c-6.3918 0.72765-10.469 10.302-9.1043 21.381s7.6551 19.473 14.047 18.746c0.34095-0.0387-3.9434-1.141-5.3757-2.5809-2.5997-2.6158-5.4582-7.0098-6.4537-12.034-0.38593-1.9473-0.675-3.9642-0.79407-5.985-0.35894-6.0854 0.64705-12.463 5.1598-16.971 0.60819-0.60742 1.5324-1.2851 2.4718-1.5432 0.13573-0.03733 0.76612-0.27241 1.5447-0.35607 1.0008-0.10759 2.1736-0.06968 2.075-0.13975-0.20541-0.14568-2.7674-0.60857-3.5703-0.51726z" fill="#757575" stroke="#1f1a17" stroke-width=".38287"/>
 <path d="m52.204 97.276c-4.4335 0.13209-8.6248 1.2353-12.574 3.3097l1.0054 4.4719c4.86-0.15468 9.1146-1.4375 12.704-3.9587-0.75847-1.1791-1.1027-2.4619-1.1348-3.823z" fill="url(#k)" stroke="#1f1a17" stroke-width=".38287"/>
 <path d="m54.474 95.569c-0.71329 2.1284-0.03637 4.0912 1.7926 5.9165 0.92942-2.369 0.27069-4.3058-1.7926-5.9165z" fill="#676767" stroke="#1f1a17" stroke-width=".38287"/>
 <path d="m54.474 95.569c-0.71329 2.1284-0.03637 4.0912 1.7926 5.9165l-1.9743 0.68266c-1.8629-1.9494-2.4927-4.009-1.6339-6.201l1.8156-0.39819z" fill="url(#l)" stroke="#1f1a17" stroke-width=".38287"/>
 <path d="m55.018 96.685 10.689-2.9582c0.0716 1.1664 0.35913 2.2245 0.79407 3.2086l-10.553 3.2994c-0.9455-1.0314-1.2554-2.2149-0.93038-3.5498z" fill="url(#m)" stroke="#1f1a17" stroke-width=".38287"/>
 <path d="m65.639 87.49 1.8353-0.37943c-1.2326 5.2989 0.54904 10.018 4.1275 14.346l-1.9006 0.50577c-3.8586-4.4446-5.4081-9.2394-4.0623-14.472z" fill="url(#n)" stroke="#1f1a17" stroke-width=".38287"/>
 <path d="m77.417 87.81c-3.5565 0.43475-6.8708 0.20216-9.9428-0.69797-1.2326 5.2989 0.54904 10.018 4.1275 14.346 2.3568-2.393 4.9408-4.5581 8.0845-6.1616l-2.2693-7.4865z" fill="url(#o)" stroke="#1f1a17" stroke-width=".38287"/>
 <path d="m23.006 87.13c-6.3918 0.72765-10.469 10.302-9.1043 21.381s7.6551 19.473 14.047 18.746c0.34095-0.0387-3.9434-1.141-5.3757-2.5809-2.5997-2.6158-5.4582-7.0098-6.4537-12.034-0.38593-1.9473-0.675-3.9642-0.79407-5.985-0.35894-6.0854 0.64705-12.463 5.1598-16.971 0.60819-0.60742 1.5324-1.2851 2.4718-1.5432 0.13573-0.03733 0.76612-0.27241 1.5447-0.35607 1.0008-0.10759 2.1736-0.06968 2.075-0.13975-0.20541-0.14568-2.7674-0.60857-3.5703-0.51726z" fill="#757575" stroke="#1f1a17" stroke-width=".38287"/>
 <path d="m49.187 62.713c-9.2638 4.9325-11.591 16.995-2.3003 22.738 4.6211 2.8562 11.138 1.4084 14.998-2.2953 6.987-6.7052 6.5812-19.368-3.5016-21.894-2.7142-0.67979-6.6319 0.08538-9.1964 1.4507z" fill="none" stroke="#1f1a17" stroke-width=".38287"/>
 <path d="m49.238 62.674c-9.2638 4.9325-11.591 16.995-2.3003 22.738-0.1005 0.17038-0.83581-0.52951-1.1924-0.81896-2.3966-1.9436-3.7874-7.331-3.3606-10.384 0.43418-3.1083 2.3706-6.5869 4.6222-8.6918 2.7324-2.5538 7.1836-3.7135 10.823-3.3176 0.63404 0.06892 4.8403 0.88424 5.1971 1.425 0.02278 0.03465-1.0179-0.84768-2.1397-1.4398-1.8238-0.96273-3.6604-1.2786-5.721-1.1402-2.102 0.14109-4.2656 0.74354-5.9284 1.6289z" fill="#8d8d8d" stroke="#1f1a17" stroke-width=".38287"/>
 <path d="m60.363 134.77c-0.10414 0.1811-3.1585-0.99891-3.5282-1.3065-1.1067-0.64017-2.7502-1.8834-3.8978-3.5469-2.3548-3.4125-3.0913-7.0544-2.0736-11.031 0.23527-0.91851 0.52224-1.5074 0.72765-2.1142 2.4033-7.1 7.7145-10.01 13.666-9.7958 0.99374 0.0356 2.0916 0.15526 3.0254 0.50003 0.29921 0.11027 0.97326 0.30936 1.2344 0.46615s0.11046 0.27184 0.43896 0.38823c0.03886 0.0134-1.4184-0.45485-3.0634-0.33903-1.1576 0.0817-2.8126-0.0153-4.2759 0.35607-12.622 3.2058-15.487 20.694-2.254 26.423z" fill="#8d8d8d" stroke="#1f1a17" stroke-width=".38287"/>
 <path d="m68.969 76.477 7.1545 1.9806 0.1587 3.2994-8.0792-2.2298c-0.69587-1.2665-0.53487-2.2082 0.76593-3.0502z" fill="url(#q)" stroke="#1f1a17" stroke-width=".38287"/>
 <path d="m81.955 100.35 1.5206 2.8216-6.6267 7.1226c-1.3228-0.34018-2.232-0.96426-2.4054-2.0935l7.5116-7.8506z" fill="url(#r)" stroke="#1f1a17" stroke-width=".38287"/>
 <path d="m76.735 74.384 2.6791-0.68075c-0.03637 0.29098-0.2257 0.52434-0.31415 0.80365-2.9489 9.3019 4.1484 25.006 9.7764 31.667l-2.3604 0.59192c-5.5549-5.9039-9.5025-15.07-10.161-23.712-0.22417-2.9429-0.38459-5.8979 0.37962-8.6696z" fill="url(#s)" stroke="#1f1a17" stroke-width=".38287"/>
 <path d="m86.842 72.453c4.2738 2.7161 5.6259 8.9069 7.161 13.809l-6.3559 2.54-2.0888-7.2229 1.2836-9.1263z" fill="#8d8d8d" stroke="#1f1a17" stroke-width=".38287"/>
 <path d="m86.842 72.453-7.7417 2.0537c-2.9489 9.3019 4.1484 25.006 9.7764 31.667l-0.87008-1.0864 8.0258-2.1573c-7.7104-9.5921-10.436-19.793-9.1904-30.477z" fill="url(#t)" stroke="#1f1a17" stroke-width=".38287"/>
 <path d="m88.177 88.216 106.11-31.127c1.0215 2.8507 2.6058 11.954 2.8459 14.428l-101.82 30.489c-4.0653-5.7285-4.4281-6.9311-5.0139-8.3433-0.74947-1.8068-1.6965-3.1677-2.1169-5.4473z" fill="url(#u)" stroke="#1f1a17" stroke-width=".38287"/>
 <g transform="matrix(1.9144 0 0 1.9144 -46.999 -188.28)" stroke="#1f1a17" stroke-width=".2">
  <path d="m71.917 144.05 47.652-13.979-0.302-0.816-47.334 14.08z" fill="url(#aj)"/>
  <path d="m120.652,129.754-1.083.318-.658-1.746 1.061-.307z" fill="url(#ai)"/>
  <path d="m119.97 128.02c1.819-1.2411 2.4699-3.4866 2.3603-6.3443l2.7119 6.7909-4.3931 1.2887-0.6791-1.7353z" fill="url(#ak)"/>
  <path d="m122.333,121.675 .8272-.2435c1.3515,2.0544 2.2761,4.319 2.8792,6.7426l-.9945.2918-2.7119-6.7909z" fill="url(#ah)"/>
 </g>
 <path d="m86.672 74.227 102.1-30.046c4.0131 6.6924 4.8896 9.894 5.5118 12.908l-106.11 31.127c-1.5799-4.4206-1.7922-9.2823-1.5056-13.988z" fill="url(#v)" fill-opacity=".63922" stroke="#1f1a17" stroke-opacity=".63922" stroke-width=".38287"/>
 <path d="m94.289 79.055 1.8204-0.47859c0.43571 2.4651 0.87754 4.5554 1.6159 6.8385l-1.9373 0.56818c-0.70142-2.2779-1.1306-4.5897-1.4989-6.9281z" fill="#fff" stroke="#1f1a17" stroke-width=".38287"/>
 <path d="m101.66 76.892 1.8204-0.47859c0.43571 2.4651 0.87754 4.5554 1.6159 6.8385l-1.9373 0.56818c-0.70142-2.2779-1.1306-4.5897-1.4989-6.9281z" fill="#fff" stroke="#1f1a17" stroke-width=".38287"/>
 <path d="m109.07 74.721 1.8204-0.47859c0.43571 2.4651 0.87754 4.5554 1.6159 6.8385l-1.9373 0.56818c-0.70142-2.2779-1.1306-4.5897-1.4989-6.9281z" fill="#fff" stroke="#1f1a17" stroke-width=".38287"/>
 <path d="m116.45 72.556 1.8204-0.47859c0.4357 2.4651 0.87754 4.5554 1.6159 6.8385l-1.9373 0.56818c-0.70142-2.2779-1.1306-4.5897-1.4989-6.9281z" fill="#fff" stroke="#1f1a17" stroke-width=".38287"/>
 <path d="m123.75 70.412 1.8204-0.47859c0.43571 2.4651 0.87754 4.5554 1.6159 6.8385l-1.9373 0.56818c-0.70142-2.2779-1.1306-4.5897-1.4989-6.9281z" fill="#fff" stroke="#1f1a17" stroke-width=".38287"/>
 <path d="m130.94 67.994 1.8204-0.47859c0.43571 2.4651 0.92311 4.8512 1.6615 7.1342l-1.9373 0.56818c-0.70142-2.2779-1.1762-4.8854-1.5445-7.2238z" fill="#fff" stroke="#1f1a17" stroke-width=".38287"/>
 <path d="m138.43 65.789 1.8204-0.47859c0.43571 2.4651 0.97288 4.8445 1.7112 7.1275l-1.9373 0.56818c-0.70142-2.2779-1.226-4.8787-1.5943-7.2171z" fill="#fff" stroke="#1f1a17" stroke-width=".38287"/>
 <path d="m145.86 63.608 1.8204-0.47859c0.43571 2.4651 0.97288 4.8445 1.7112 7.1275l-1.9373 0.56818c-0.70142-2.2779-1.226-4.8787-1.5943-7.2171z" fill="#fff" stroke="#1f1a17" stroke-width=".38287"/>
 <path d="m153.3 61.428 1.8204-0.47859c0.43571 2.4651 0.97288 4.8445 1.7112 7.1275l-1.9373 0.56818c-0.70142-2.2779-1.226-4.8787-1.5943-7.2171z" fill="#fff" stroke="#1f1a17" stroke-width=".38287"/>
 <path d="m160.6 59.288 1.8204-0.47859c0.43571 2.4651 1.2891 4.7489 2.0275 7.032l-1.9373 0.56818c-0.70142-2.2779-1.5422-4.7832-1.9105-7.1216z" fill="#fff" stroke="#1f1a17" stroke-width=".38287"/>
 <path d="m167.96 57.128 1.8204-0.47859c0.43571 2.4651 1.3253 4.8004 2.0637 7.0835l-1.9373 0.56818c-0.70142-2.2779-1.5784-4.8347-1.9467-7.1731z" fill="#fff" stroke="#1f1a17" stroke-width=".38287"/>
 <path d="m175.41 54.881 1.8204-0.47859c0.43571 2.4651 1.3253 4.8004 2.0637 7.0835l-1.9373 0.56818c-0.70142-2.2779-1.5784-4.8347-1.9467-7.1731z" fill="#fff" stroke="#1f1a17" stroke-width=".38287"/>
 <path d="m182.76 52.725 1.8204-0.47859c0.43571 2.4651 1.3253 4.8004 2.0637 7.0835l-1.9373 0.56818c-0.70142-2.2779-1.5784-4.8347-1.9467-7.1731z" fill="#fff" stroke="#1f1a17" stroke-width=".38287"/>
 <path d="m195.76 40.022c4.3749 8.3822 8.8581 19.966 8.6692 30.902l-7.1258 1.9569c-1.2313-11.635-4.7013-21.769-9.4862-30.447l7.9429-2.4121z" fill="url(#w)" stroke="#1f1a17" stroke-width=".38287"/>
 <path d="m197.49 38.567c5.825 9.9855 8.2924 21.007 9.3951 32.45-0.76019 0.47763-1.91 0.78872-2.2465 0.65988-1.2832-11.5-3.7073-22.467-9.4634-32.472 0.64303-0.50252 1.4298-0.68094 2.3148-0.6371z" fill="url(#x)" stroke="#1f1a17" stroke-width=".38287"/>
 <path d="m199.98 43.309c2.3782 2.902 4.9836 5.0832 8.0882 5.6788 1.4668 2.2344 2.1803 4.7279 2.1334 7.5094-2.0899 2.1902-3.2827 5.4295-3.9196 9.3197-1.1166-8.2044-3.1539-15.752-6.3019-22.508z" fill="url(#y)" stroke="#1f1a17" stroke-width=".38287"/>
 <path d="m218.91 46.067c1.6477 2.6215 1.9999 3.0836 2.1916 6.8781l-8.9203 2.7075c-0.35645-3.6968-0.37789-3.8312-1.8891-7.1258l8.6179-2.4598z" fill="url(#z)" stroke="#1f1a17" stroke-width=".38287"/>
 <path d="m209.79 47.742c2.1328 3.0896 2.2718 5.7706 2.464 9.0628l-1.8671 0.68094c0.0978-3.6895-0.57412-5.8763-2.6001-9.1792l2.0032-0.56454z" fill="url(#aa)" stroke="#1f1a17" stroke-width=".38287"/>
 <path d="m228.25 43.935c1.1 2.2608 1.1944 1.8479 1.6925 5.8311l-6.6826 1.935c-1.2828-3.7472-0.80327-3.1552-1.7991-5.8009l6.7893-1.9653z" fill="url(#ab)" stroke="#1f1a17" stroke-width=".38287"/>
 <path d="m220.4 44.434c2.5193 3.1219 2.9973 5.6625 2.8497 8.9261l-2.2528 0.81762c0.0978-3.6895-0.57412-5.8763-2.6001-9.1792l2.0032-0.56454z" fill="url(#ac)" stroke="#1f1a17" stroke-width=".38287"/>
 <path d="m228.25 43.935 4.2058 0.86586 0.42001 1.7522-2.9334 3.2131c-0.0239-2.0296-0.55325-3.9788-1.6925-5.8311z" fill="url(#ad)" stroke="#1f1a17" stroke-width=".38287"/>
 <path d="m232.46 44.802 74.083-22.027c1.3628-0.01934 2.3279 0.31893 2.813 1.0889l-76.476 22.69-0.42001-1.7522z" fill="none" stroke="#1f1a17" stroke-width=".38287"/>
 <g transform="matrix(1.034 0 0 1.0557 -35.096 -37.101)" stroke="#1f1a17" stroke-width=".38287">
  <path d="m98.296 134.97c-2.9546-0.0207-6.3106 0.76495-8.6875 2-7.6542 3.9771-10.657 13.162-6.7188 20.531s13.877 10.059 21.125 5.1562c10.665-7.2144 10.429-24.225-2.9688-27.375-0.84528-0.1988-1.7651-0.3056-2.75-0.3125zm0.125 1.5938c0.78904 2e-3 1.5402 0.08 2.2188 0.25 10.083 2.5254 10.487 15.201 3.5 21.906-3.8605 3.7037-10.379 5.1375-15 2.2812-9.2906-5.7436-6.9825-17.786 2.2812-22.719 1.9234-1.024 4.6329-1.7263 7-1.7188z" fill="url(#i)"/>
  <path d="m91.367 138.23c-9.2638 4.9325-11.591 16.995-2.3003 22.738-0.1005 0.17038-0.83581-0.52951-1.1924-0.81896-2.3966-1.9436-3.7874-7.331-3.3606-10.384 0.43418-3.1083 2.3706-6.5869 4.6222-8.6918 2.7324-2.5538 7.1836-3.7135 10.823-3.3176 0.63403 0.0689 4.8403 0.88424 5.1971 1.425 0.0228 0.0346-1.0179-0.84768-2.1397-1.4398-1.8238-0.96273-3.6604-1.2786-5.7211-1.1402-2.102 0.14109-4.2656 0.74353-5.9284 1.6289z" fill="#8d8d8d"/>
 </g>
</svg>
